<?xml version="1.0" encoding="utf-8"?>
<!-- Generator: Adobe Illustrator 19.0.0, SVG Export Plug-In . SVG Version: 6.00 Build 0)  -->
<svg version="1.1" id="Layer_1" xmlns="http://www.w3.org/2000/svg" xmlns:xlink="http://www.w3.org/1999/xlink" x="0px" y="0px"
	 viewBox="0 0 168.8 230.1" style="enable-background:new 0 0 168.8 230.1;" xml:space="preserve">
<g>
	<path d="M56,148.2c0,18.1,0.2,36.2-0.1,54.3c-0.3,16.8-11,27.1-27.6,27.3C12,230.1,0.4,219.7,0.3,203.1C-0.1,166,0,128.9,0.4,91.8
		c0.2-15.4,12.1-25.5,28.4-25.3c15.5,0.2,27,10.9,27.2,26C56.2,111,56,129.6,56,148.2z"/>
	<path d="M168.8,148.3c0,18.4,0.1,36.8,0,55.2c-0.1,12.4-7.7,22.2-19.3,25.3c-13.1,3.5-26.6-0.9-32.3-11.5c-2.3-4.3-3.9-9.5-4-14.3
		c-0.3-36.6-0.2-73.1-0.2-109.7c0-15.6,11.4-26.7,27.6-26.8c16.3-0.1,28,10.7,28.2,26.3C168.9,111.4,168.8,129.8,168.8,148.3z"/>
	<path d="M112.3,159.9c0,14.6,0.2,29.2,0,43.8c-0.2,16.2-11.7,26.5-28.9,26.4c-15.3-0.1-26.8-11.4-26.8-26.7
		c-0.1-29.1-0.1-58.2,0-87.2c0.1-15.8,11.7-26.7,28.1-26.6c16.7,0.1,27.6,11.2,27.7,28.2C112.4,131.8,112.4,145.8,112.3,159.9
		C112.4,159.9,112.3,159.9,112.3,159.9z"/>
	<path d="M28-0.1c15.2,0,28,12.8,28,28c0,15.3-12.7,28-28,28C12.6,56,0,43.4,0,28C0,12.6,12.7-0.1,28-0.1z"/>
	<path d="M112.9,28c0-15.3,12.6-28,27.9-28c15.1,0,28,12.8,28,27.9c0,15.3-12.6,28-27.9,28C125.4,56,112.9,43.5,112.9,28z"/>
	<path d="M56.5,51c0-15.3,12.7-28,28-28c15.3,0,27.9,12.9,27.9,28.5c0,14.8-13,27.5-28,27.5C69,78.9,56.4,66.4,56.5,51z"/>
</g>
</svg>
